<?xml version="1.0" standalone="no"?><!DOCTYPE svg PUBLIC "-//W3C//DTD SVG 1.1//EN" "http://www.w3.org/Graphics/SVG/1.1/DTD/svg11.dtd"><svg t="1522571910840" class="icon" style="" viewBox="0 0 1024 1024" version="1.1" xmlns="http://www.w3.org/2000/svg" p-id="4343" xmlns:xlink="http://www.w3.org/1999/xlink" width="32" height="32"><defs><style type="text/css"></style></defs><path d="M861.707 429.607L775.345 832.58c-0.655 3.059-5.789 7.1-8.3 7.1l-437.09-0.182V402.773h3.277v-1.201A200.504 200.504 0 0 0 512 202.524V184.32a36.445 36.445 0 0 1 72.818 0h2.33c7.209 37.32 13.617 121.169-27.161 159.18a36.409 36.409 0 0 0 24.83 63.06c5.28 0 10.414-1.53 15.293-3.787h239.206c8.447 0 15.219 2.658 19.151 7.5 3.75 4.66 4.915 11.542 3.24 19.334zM148.13 402.773h109.008v436.689H147.91l0.219-436.689z m766.953-38.302c-17.731-21.954-45.366-34.515-75.767-34.515H651.592c26.36-76.46 6.116-165.006 4.951-169.884a35.207 35.207 0 0 0-5.607-12.124A109.008 109.008 0 0 0 548.41 75.13 109.045 109.045 0 0 0 439.8 178.313h-0.619v24.211c0 70.27-57.162 127.432-127.43 127.432H148.13c-40.269 0-73.037 32.768-73.037 73.072v436.397c0 40.305 32.586 73.073 72.636 73.073h619.315c36.81 0 71.726-28.4 79.517-64.626l86.362-403.01c6.262-29.31-0.218-58.582-17.84-80.39z" p-id="4344"></path></svg>