<?xml version="1.0" standalone="no"?><!DOCTYPE svg PUBLIC "-//W3C//DTD SVG 1.1//EN" "http://www.w3.org/Graphics/SVG/1.1/DTD/svg11.dtd"><svg t="1522572063919" class="icon" style="" viewBox="0 0 1024 1024" version="1.1" xmlns="http://www.w3.org/2000/svg" p-id="4577" xmlns:xlink="http://www.w3.org/1999/xlink" width="32" height="32"><defs><style type="text/css"></style></defs><path d="M950.655 519.993L531.392 72.018c-5.039-5.007-11.612-7.272-18.406-7.72h-5.135c-6.797 0.414-13.367 2.683-18.411 7.72L73.372 519.993c-11.582 11.611-10.874 31.07 1.597 43.543 0.19 0.195 0.413 0.258 0.608 0.415 5.55 5.966 13.236 9.73 21.818 9.73h94.334v351.662c0 9.376 4.245 17.578 10.69 23.416 5.584 6.604 13.495 10.943 22.588 10.943h191.059c8.744 0 16.528-3.96 22.077-10.145 7.145-5.836 11.995-14.327 11.995-24.278v-9.317c-0.156-0.896-0.54-1.69-0.54-2.649V717.912c0-8.805 7.145-15.952 15.95-15.952h93.059c8.801 0 15.946 7.146 15.946 15.952v195.402c0 0.702-0.315 1.309-0.411 1.977v9.989c0 9.951 4.847 18.44 11.994 24.278 5.553 6.185 13.338 10.145 22.08 10.145h191.06c9.094 0 17.005-4.34 22.588-10.943 6.475-5.838 10.684-14.04 10.684-23.416V573.68h94.336c8.714 0 16.463-3.924 22.013-10.082 0.034-0.027 0.098-0.064 0.132-0.092 12.471-12.413 13.171-31.903 1.626-43.513zM416.419 637.49c-16.844 0-30.498 14.292-30.498 31.9 0 0.735 0.35 1.34 0.384 2.073v224.432H255.533V542.356c0-4.562-1.017-8.841-2.741-12.729-4.56-11.58-15.412-19.751-28.136-19.751h-55.514l323.906-351.432c15.755-15.763 19.684-15.826 34.706 0L854.467 509.91H799.66c-12.728 0-23.575 8.164-28.14 19.746-1.719 3.922-2.74 8.202-2.74 12.728v353.541h-130.8V669.997c0-0.098-0.064-0.193-0.064-0.287 0-0.096 0.064-0.194 0.064-0.286 0-17.614-13.654-31.903-30.498-31.903H416.42v-0.03z m0 0" p-id="4578"></path></svg>