<?xml version="1.0" standalone="no"?><!DOCTYPE svg PUBLIC "-//W3C//DTD SVG 1.1//EN" "http://www.w3.org/Graphics/SVG/1.1/DTD/svg11.dtd"><svg t="1522571786588" class="icon" style="" viewBox="0 0 1024 1024" version="1.1" xmlns="http://www.w3.org/2000/svg" p-id="3991" xmlns:xlink="http://www.w3.org/1999/xlink" width="32" height="32"><defs><style type="text/css"></style></defs><path d="M839.68 730.453v20.353H630.183c-33.75 0-69.614 21.445-85.233 51.009L512 864.074l-32.95-62.296c-15.62-29.527-51.482-50.972-85.233-50.972H184.32V220.729h655.36v509.724z m6.044-582.542H178.276c-36.81 0-66.774 31.275-66.774 69.687v536.34c0 38.41 30.038 69.686 66.92 69.686h215.395c6.735 0 17.877 6.517 20.898 12.233l43.29 81.884 3.314 5.17c12.707 16.53 31.166 25.996 50.681 25.996 19.515 0 37.974-9.467 50.681-25.996l46.604-87.054c2.803-5.243 13.616-12.233 20.898-12.233H845.76c36.81 0 66.738-31.276 66.738-69.687v-536.34c0-38.41-29.965-69.686-66.774-69.686z" p-id="3992"></path><path d="M311.751 439.182c-14.054 0-26.724 5.462-36.409 14.163a54.25 54.25 0 0 0-18.204 40.45c0 16.13 7.1 30.438 18.204 40.45a54.25 54.25 0 0 0 36.41 14.164 54.613 54.613 0 0 0 0-109.227m400.497 0a54.613 54.613 0 0 0 0 109.227c14.054 0 26.724-5.461 36.409-14.163 11.104-10.013 18.204-24.321 18.204-40.45a54.25 54.25 0 0 0-18.204-40.45 54.25 54.25 0 0 0-36.41-14.164m-200.248 0c-14.054 0-26.724 5.462-36.409 14.163a54.25 54.25 0 0 0-18.204 40.45c0 16.13 7.1 30.438 18.204 40.45A54.25 54.25 0 0 0 512 548.41c14.054 0 26.724-5.461 36.409-14.163 11.105-10.013 18.204-24.321 18.204-40.45a54.25 54.25 0 0 0-18.204-40.45A54.25 54.25 0 0 0 512 439.181" p-id="3993"></path></svg>