<?xml version="1.0" standalone="no"?><!DOCTYPE svg PUBLIC "-//W3C//DTD SVG 1.1//EN" "http://www.w3.org/Graphics/SVG/1.1/DTD/svg11.dtd"><svg t="1522571743419" class="icon" style="" viewBox="0 0 1024 1024" version="1.1" xmlns="http://www.w3.org/2000/svg" p-id="3873" xmlns:xlink="http://www.w3.org/1999/xlink" width="32" height="32"><defs><style type="text/css"></style></defs><path d="M962 512.09c0-5.4-0.93-9.93-1.2-10.44-0.18-2.7-1.08-7.56-1.95-10.14-0.24-0.63-0.51-1.29-0.78-1.95-0.45-1.47-0.96-2.91-1.5-4.05C873.56 303.98 694.91 182 512 182c-182.88 0-361.53 121.89-444.15 302.43-0.99 1.98-1.68 3.84-2.13 5.49a52.0425 52.0425 0 0 0-0.6 1.5c-1.65 4.77-1.68 8.1-1.53 7.26-0.78 3.51-1.47 10.47-1.47 10.47-0.21 2.13-0.21 3.78 0.03 5.91 0 0 0.69 6.06 1.02 7.32 0.12 1.71 0.54 4.23 1.05 6.54h-0.03c0.42 1.95 1.05 3.84 1.86 5.7 0.45 1.44 0.93 2.79 1.38 3.78C150.53 719.99 329.18 842 512 842c182.94 0 361.59-121.92 443.64-301.59 1.29-2.34 2.1-4.53 2.67-6.48 0.24-0.57 0.45-1.11 0.63-1.62 1.44-4.2 1.74-7.8 1.62-7.8l-0.03 0.03c0.57-2.91 1.47-7.26 1.47-12.45z m-60.63 2.22c-0.03 0.15-0.09 0.3-0.12 0.45-0.12 0.39-0.27 0.81-0.39 1.29C827.03 675.2 671.09 782 512 782c-158.7 0-314.37-106.47-388.95-266.22-0.15-0.54-0.3-1.08-0.48-1.59-0.06-0.51-0.15-0.96-0.18-1.26-0.06-0.33-0.12-0.75-0.18-1.17l0.03-0.39c0.15-0.66 0.27-1.35 0.36-2.07 0.12-0.39 0.24-0.78 0.36-1.2C196.85 348.86 352.91 242 512 242c159.15 0 315.18 106.95 388.83 265.95 0.09 0.3 0.15 0.57 0.24 0.78 0.06 0.27 0.15 0.54 0.24 0.81 0.15 1.2 0.3 2.37 0.45 2.97-0.18 0.6-0.27 1.2-0.39 1.8z" p-id="3874"></path><path d="M512 362c-82.71 0-150 67.29-150 150s67.29 150 150 150 150-67.29 150-150-67.29-150-150-150z m0 240c-49.62 0-90-40.38-90-90s40.38-90 90-90 90 40.38 90 90-40.38 90-90 90z" p-id="3875"></path></svg>